<svg width="160" height="160" viewBox="0 0 160 160" fill="none" xmlns="http://www.w3.org/2000/svg">
<circle cx="80" cy="80" r="80" fill="white"/>
<path d="M59.1666 121.667V83.5416C55.625 82.5694 52.6562 80.625 50.2604 77.7083C47.8645 74.7916 46.6666 71.3889 46.6666 67.5V38.3333H55V67.5H59.1666V38.3333H67.5V67.5H71.6666V38.3333H80V67.5C80 71.3889 78.802 74.7916 76.4062 77.7083C74.0104 80.625 71.0416 82.5694 67.5 83.5416V121.667H59.1666ZM100.833 121.667V88.3333H88.3333V59.1666C88.3333 53.4028 90.3645 48.4896 94.427 44.4271C98.4895 40.3646 103.403 38.3333 109.167 38.3333V121.667H100.833Z" fill="black"/>
</svg>
