<svg width="160" height="160" viewBox="0 0 160 160" fill="none" xmlns="http://www.w3.org/2000/svg">
<circle cx="80" cy="80" r="80" fill="white"/>
<path d="M48.2291 117.5L42.3958 111.667L85.1041 68.9583C83.8541 66.0417 83.6805 62.7431 84.5833 59.0625C85.4861 55.3819 87.4653 52.0833 90.5208 49.1667C94.2014 45.4861 98.2986 43.3333 102.812 42.7083C107.326 42.0833 111.007 43.1944 113.854 46.0417C116.701 48.8889 117.812 52.5694 117.187 57.0833C116.562 61.5972 114.41 65.6944 110.729 69.375C107.812 72.4306 104.514 74.4097 100.833 75.3125C97.1528 76.2153 93.8541 76.0417 90.9375 74.7917L85.7291 80L117.396 111.667L111.562 117.5L79.8958 86.0417L48.2291 117.5ZM60.5208 81.875L48.0208 69.375C44.2708 65.625 42.3958 61.1458 42.3958 55.9375C42.3958 50.7292 44.2708 46.25 48.0208 42.5L73.8541 68.5417L60.5208 81.875Z" fill="black"/>
</svg>
